<svg width="30" height="30" viewBox="0 0 30 30" fill="none" xmlns="http://www.w3.org/2000/svg">
<path d="M30 15.2115C30 23.4958 23.2843 30.2115 15 30.2115C6.71573 30.2115 0 23.4958 0 15.2115C0 6.92728 6.71573 0.211548 15 0.211548C23.2843 0.211548 30 6.92728 30 15.2115Z" fill="white"></path>
<path fill-rule="evenodd" clip-rule="evenodd" d="M9.8309 10.0424C10.0969 9.77646 10.5281 9.77646 10.7941 10.0424L15 14.2483L19.2059 10.0424C19.4719 9.77646 19.9031 9.77646 20.1691 10.0424C20.4351 10.3084 20.4351 10.7397 20.1691 11.0057L15.9632 15.2115L20.1691 19.4174C20.4351 19.6834 20.4351 20.1147 20.1691 20.3807C19.9031 20.6466 19.4719 20.6466 19.2059 20.3807L15 16.1748L10.7941 20.3807C10.5281 20.6466 10.0969 20.6466 9.8309 20.3807C9.56492 20.1147 9.56492 19.6834 9.8309 19.4174L14.0368 15.2115L9.8309 11.0057C9.56492 10.7397 9.56492 10.3084 9.8309 10.0424Z" fill="#C2C2C4"></path>
</svg>
